<mxfile host="app.diagrams.net" modified="2024-08-05T06:16:27.554Z" agent="Mozilla/5.0 (Macintosh; Intel Mac OS X 10_15_7) AppleWebKit/537.36 (KHTML, like Gecko) Chrome/126.0.0.0 Safari/537.36" version="24.6.5" etag="3Vv6AaWatlBvo1vuZ42C" type="github">
  <diagram name="第 1 页" id="pZyH671-HyhlphgzoZuT">
    <mxGraphModel>
      <root>
        <mxCell id="0" />
        <mxCell id="1" parent="0" />
      </root>
    </mxGraphModel>
  </diagram>
</mxfile>
